<svg width="36" height="36" viewBox="0 0 36 36" fill="none" xmlns="http://www.w3.org/2000/svg">
<path d="M25.2488 15.3625C25.7108 15.3625 26.1539 15.1768 26.4806 14.8463C26.8073 14.5157 26.9908 14.0674 26.9908 13.6V12.7928C26.9887 11.1378 26.3379 9.55115 25.1812 8.38087C24.0245 7.2106 22.4564 6.55218 20.8206 6.55H19.442V5.9625C19.442 5.49506 19.2585 5.04676 18.9318 4.71623C18.6051 4.3857 18.162 4.2 17.7 4.2C17.238 4.2 16.7949 4.3857 16.4682 4.71623C16.1415 5.04676 15.958 5.49506 15.958 5.9625V6.55H14.5795C13.0982 6.54777 11.6655 7.0848 10.5432 8.06298C9.42084 9.04116 8.6838 10.3952 8.46668 11.8778C8.24956 13.3603 8.56684 14.8724 9.36058 16.1378C10.1543 17.4033 11.3715 18.3375 12.7898 18.77L15.958 19.6466V26.525H14.5795C13.8673 26.5241 13.1846 26.2374 12.6811 25.728C12.1775 25.2185 11.8942 24.5277 11.8933 23.8072V23C11.8933 22.5326 11.7097 22.0843 11.3831 21.7537C11.0564 21.4232 10.6133 21.2375 10.1513 21.2375C9.68924 21.2375 9.24615 21.4232 8.91946 21.7537C8.59277 22.0843 8.40923 22.5326 8.40923 23V23.8072C8.41139 25.4623 9.06215 27.0489 10.2188 28.2191C11.3755 29.3894 12.9437 30.0478 14.5795 30.05H15.958V30.6375C15.958 31.105 16.1415 31.5532 16.4682 31.8838C16.7949 32.2143 17.238 32.4 17.7 32.4C18.162 32.4 18.6051 32.2143 18.9318 31.8838C19.2585 31.5532 19.442 31.105 19.442 30.6375V30.05H20.8206C22.3019 30.0522 23.7346 29.5152 24.8569 28.537C25.9792 27.5589 26.7162 26.2048 26.9334 24.7223C27.1505 23.2397 26.8332 21.7276 26.0395 20.4622C25.2457 19.1968 24.0285 18.2625 22.6102 17.83L19.442 16.9558V10.075H20.8206C21.5327 10.0759 22.2154 10.3626 22.719 10.8721C23.2225 11.3815 23.5058 12.0723 23.5068 12.7928V13.6C23.5068 14.0674 23.6903 14.5157 24.017 14.8463C24.3437 15.1768 24.7868 15.3625 25.2488 15.3625ZM21.6277 21.2128C22.2404 21.4082 22.7636 21.8191 23.1026 22.3711C23.4416 22.9232 23.574 23.5798 23.4757 24.2221C23.3774 24.8644 23.055 25.4498 22.5668 25.8722C22.0787 26.2947 21.4571 26.5263 20.8148 26.525H19.442V20.6089L21.6277 21.2128ZM15.958 15.9911L13.7723 15.3872C13.1602 15.192 12.6372 14.7815 12.2982 14.2301C11.9592 13.6787 11.8264 13.0227 11.9239 12.3808C12.0215 11.739 12.3428 11.1536 12.8299 10.7307C13.317 10.3077 13.9376 10.0752 14.5795 10.075H15.958V15.9911Z" fill="#004E89"/>
</svg>
