<svg width="36" height="37" viewBox="0 0 36 37" fill="none" xmlns="http://www.w3.org/2000/svg">
<circle cx="20.3379" cy="9.72128" r="1.125" transform="rotate(-9 20.3379 9.72128)" fill="#004E89"/>
<path d="M9.05019 10.37C8.43652 10.4672 8.01783 11.0435 8.11503 11.6572C8.21223 12.2708 8.7885 12.6895 9.40217 12.5923L9.05019 10.37ZM13.8468 11.8884C14.4604 11.7912 14.8791 11.2149 14.7819 10.6012C14.6847 9.98755 14.1085 9.56886 13.4948 9.66606L13.8468 11.8884ZM10.1061 17.0369C9.49245 17.1341 9.07377 17.7104 9.17096 18.3241C9.26816 18.9377 9.84443 19.3564 10.4581 19.2592L10.1061 17.0369ZM21.5696 17.4993C22.1833 17.4021 22.602 16.8259 22.5048 16.2122C22.4076 15.5985 21.8313 15.1798 21.2176 15.277L21.5696 17.4993ZM10.8101 21.4815C10.1964 21.5787 9.77772 22.155 9.87492 22.7687C9.97211 23.3823 10.5484 23.801 11.1621 23.7038L10.8101 21.4815ZM20.0513 22.2959C20.6649 22.1987 21.0836 21.6224 20.9864 21.0088C20.8892 20.3951 20.3129 19.9764 19.6993 20.0736L20.0513 22.2959ZM9.8197 29.6115L9.64371 28.5004L9.8197 29.6115ZM7.24543 27.7412L6.13428 27.9172L7.24543 27.7412ZM27.2461 24.5734L26.135 24.7494L27.2461 24.5734ZM25.3758 27.1477L25.5518 28.2588L25.3758 27.1477ZM21.68 3.81355L21.504 2.7024L21.68 3.81355ZM24.2543 5.68387L25.3655 5.50789L24.2543 5.68387ZM6.12394 6.2774L6.29993 7.38855L6.12394 6.2774ZM4.25362 8.85167L5.36477 8.67568L4.25362 8.85167ZM29.2499 11.65V30.775H31.4999V11.65H29.2499ZM28.1249 31.9H12.3749V34.15H28.1249V31.9ZM12.3749 31.9C11.7535 31.9 11.2499 31.3963 11.2499 30.775H8.99987C8.99987 32.639 10.5109 34.15 12.3749 34.15V31.9ZM29.2499 30.775C29.2499 31.3963 28.7462 31.9 28.1249 31.9V34.15C29.9888 34.15 31.4999 32.639 31.4999 30.775H29.2499ZM28.1249 10.525C28.7462 10.525 29.2499 11.0287 29.2499 11.65H31.4999C31.4999 9.78604 29.9888 8.275 28.1249 8.275V10.525ZM11.2499 30.775V28.525H8.99987V30.775H11.2499ZM28.1249 8.275H24.7499V10.525H28.1249V8.275ZM9.40217 12.5923L13.8468 11.8884L13.4948 9.66606L9.05019 10.37L9.40217 12.5923ZM10.4581 19.2592L21.5696 17.4993L21.2176 15.277L10.1061 17.0369L10.4581 19.2592ZM11.1621 23.7038L20.0513 22.2959L19.6993 20.0736L10.8101 21.4815L11.1621 23.7038ZM6.29993 7.38855L21.856 4.9247L21.504 2.7024L5.94795 5.16625L6.29993 7.38855ZM23.1432 5.85986L26.135 24.7494L28.3573 24.3974L25.3655 5.50789L23.1432 5.85986ZM25.1998 26.0365L9.64371 28.5004L9.99569 30.7227L25.5518 28.2588L25.1998 26.0365ZM8.35657 27.5652L5.36477 8.67568L3.14247 9.02766L6.13428 27.9172L8.35657 27.5652ZM9.64371 28.5004C9.03004 28.5976 8.45377 28.1789 8.35657 27.5652L6.13428 27.9172C6.42586 29.7582 8.15468 31.0143 9.99569 30.7227L9.64371 28.5004ZM26.135 24.7494C26.2322 25.3631 25.8135 25.9393 25.1998 26.0365L25.5518 28.2588C27.3928 27.9673 28.6488 26.2384 28.3573 24.3974L26.135 24.7494ZM21.856 4.9247C22.4697 4.82751 23.046 5.24619 23.1432 5.85986L25.3655 5.50789C25.0739 3.66687 23.3451 2.41082 21.504 2.7024L21.856 4.9247ZM5.94795 5.16625C4.10694 5.45783 2.85088 7.18665 3.14247 9.02766L5.36477 8.67568C5.26757 8.06201 5.68626 7.48574 6.29993 7.38855L5.94795 5.16625Z" fill="#004E89"/>
</svg>
