<svg width="36" height="36" viewBox="0 0 36 36" fill="none" xmlns="http://www.w3.org/2000/svg">
<path d="M13.5001 4.5C9.35799 4.5 6.00012 7.85786 6.00012 12C6.00012 16.1421 9.35799 19.5 13.5001 19.5C17.6423 19.5 21.0001 16.1421 21.0001 12C21.0001 7.85786 17.6423 4.5 13.5001 4.5ZM9.00012 12C9.00012 9.51472 11.0148 7.5 13.5001 7.5C15.9854 7.5 18.0001 9.51472 18.0001 12C18.0001 14.4853 15.9854 16.5 13.5001 16.5C11.0148 16.5 9.00012 14.4853 9.00012 12Z" fill="#004E89"/>
<path d="M25.3628 12.3274C24.9408 12.1123 24.4738 12.0001 24.0001 12.0001V9.00009C24.9475 9.00009 25.8814 9.22435 26.7255 9.65468C26.8184 9.70207 26.91 9.75182 27.0001 9.80385C27.7282 10.2242 28.3609 10.7935 28.8561 11.4758C29.4125 12.2426 29.7795 13.1302 29.927 14.0661C30.0745 15.0019 29.9982 15.9594 29.7045 16.8601C29.4108 17.7608 28.908 18.5792 28.2372 19.2482C27.5664 19.9172 26.7467 20.4179 25.8453 20.7092C25.0431 20.9685 24.1964 21.0554 23.3604 20.9658C23.257 20.9547 23.1537 20.9409 23.0506 20.9244C22.1158 20.7746 21.2297 20.4057 20.4648 19.8478L20.4632 19.8467L22.2317 17.4234C22.6143 17.7026 23.0577 17.8872 23.5254 17.9621C23.9931 18.0371 24.4719 18.0002 24.9227 17.8545C25.3734 17.7089 25.7832 17.4585 26.1186 17.124C26.454 16.7895 26.7054 16.3804 26.8522 15.93C26.9991 15.4797 27.0372 15.0009 26.9635 14.533C26.8897 14.0651 26.7062 13.6213 26.428 13.238C26.1498 12.8546 25.7848 12.5426 25.3628 12.3274Z" fill="#004E89"/>
<path d="M29.9973 31.5C29.9973 30.7124 29.8422 29.9326 29.5408 29.205C29.2394 28.4774 28.7976 27.8163 28.2408 27.2594C27.6839 26.7025 27.0227 26.2607 26.2951 25.9594C25.5675 25.658 24.7877 25.5028 24.0001 25.5028V22.5C25.0232 22.5 26.0377 22.6744 27.0001 23.0147C27.1495 23.0675 27.2976 23.1243 27.4443 23.1851C28.5362 23.6374 29.5284 24.3003 30.3641 25.136C31.1998 25.9718 31.8627 26.9639 32.315 28.0559C32.3758 28.2025 32.4326 28.3506 32.4854 28.5C32.8257 29.4624 33.0001 30.4769 33.0001 31.5H29.9973Z" fill="#004E89"/>
<path d="M24.0001 31.5H21.0001C21.0001 27.3579 17.6423 24 13.5001 24C9.35799 24 6.00012 27.3579 6.00012 31.5H3.00012C3.00012 25.701 7.70113 21 13.5001 21C19.2991 21 24.0001 25.701 24.0001 31.5Z" fill="#004E89"/>
</svg>
